<svg width="120" height="100" viewBox="0 0 120 100" fill="none" xmlns="http://www.w3.org/2000/svg">
<g id="logo">
<rect width="120" height="100" fill="white"/>
<g id="ramme">
<line id="Line 1" x1="35.5" y1="25" x2="35.5" y2="75" stroke="black"/>
<line id="Line 2" x1="35" y1="74.5" x2="85" y2="74.5" stroke="black"/>
<line id="Line 3" x1="84.5" y1="75" x2="84.5" y2="25" stroke="black"/>
<line id="Line 4" x1="85" y1="25.5" x2="35" y2="25.5" stroke="black"/>
</g>
<rect id="rektangel" x="39" y="22" width="48" height="48" fill="black"/>
<path id="T" d="M62 53V42.824H58.064V41.8H67.12V42.824H63.184V53H62Z" fill="white"/>
<path id="B" d="M71.824 65V53.8H76.656C77.904 53.8 78.8693 54.0507 79.552 54.552C80.2453 55.0533 80.592 55.7627 80.592 56.68C80.592 57.288 80.448 57.8 80.16 58.216C79.8827 58.632 79.4987 58.9467 79.008 59.16C78.528 59.3733 78 59.48 77.424 59.48L77.696 59.096C78.4107 59.096 79.024 59.208 79.536 59.432C80.0587 59.6453 80.464 59.9707 80.752 60.408C81.04 60.8347 81.184 61.368 81.184 62.008C81.184 62.9573 80.832 63.6933 80.128 64.216C79.4347 64.7387 78.384 65 76.976 65H71.824ZM73.008 64.024H76.96C77.9413 64.024 78.6933 63.8587 79.216 63.528C79.7387 63.1867 80 62.648 80 61.912C80 61.1867 79.7387 60.6587 79.216 60.328C78.6933 59.9867 77.9413 59.816 76.96 59.816H72.88V58.84H76.576C77.472 58.84 78.1653 58.6693 78.656 58.328C79.1573 57.9867 79.408 57.48 79.408 56.808C79.408 56.1253 79.1573 55.6187 78.656 55.288C78.1653 54.9467 77.472 54.776 76.576 54.776H73.008V64.024Z" fill="white"/>
<path id="L" d="M45.824 38V26.8H47.008V36.976H53.28V38H45.824Z" fill="white"/>
</g>
</svg>
